# xmcd
#
# Track frame offsets:
#	150
#	14289
#	28948
#	45773
#	62625
#	84490
#	103824
#	118544
#	135361
#	158227
#	175349
#	193743
#	211555
#	224312
#	240507
#	257716
#	271183
#	288940
#	307514
#
# Disc length: 4322
#
# Revision: 1
# Processed by: cddbd v1.5.1PL0 Copyright (c) Steve Scherf et al.
# Submitted via: EZCDDA 4.3.3.2
# Normalized: r0:TDELIM( - )
#
DISCID=f610e013
DTITLE=Various Artist - Country Collection V-9
DYEAR=1900
DGENRE=
TTITLE0=Trisha Yearwood - I Want To Live Again
TTITLE1=Trisha Yearwood - It's Alright
TTITLE2=Trisha Yearwood - I Lied
TTITLE3=Trisha Yearwood - I Need You
TTITLE4=Trisha Yearwood - Little Hercules
TTITLE5=Trisha Yearwood - Under The Rainbow
TTITLE6=Trisha Yearwood - Everybody Knows
TTITLE7=Trisha Yearwood - Hello I'm Gone
TTITLE8=Trisha Yearwood - Maybe It's Love
TTITLE9=Trisha Yearwood - A Lover Is Forever
TTITLE10=Trisha Yearwood - How do I Live
TTITLE11=Trisha Yearwood - The Song Remembers When
TTITLE12=Trisha Yearwood - The Wrong Side Of Memphis
TTITLE13=Trisha Yearwood and Garth - In Anothers Eyes
TTITLE14=Trisha Yearwood - The Woman Before Me
TTITLE15=Trisha Yearwood - Perfect Love
TTITLE16=Trisha Yearwood - Down On My Knees
TTITLE17=Trisha Yearwood - She's In Love With The Boy
TTITLE18=Trisha Yearwood - Like We Never Had A Broken Heart
EXTD=
EXTT0=
EXTT1=
EXTT2=
EXTT3=
EXTT4=
EXTT5=
EXTT6=
EXTT7=
EXTT8=
EXTT9=
EXTT10=
EXTT11=
EXTT12=
EXTT13=
EXTT14=
EXTT15=
EXTT16=
EXTT17=
EXTT18=
PLAYORDER=
